<?xml version="1.0" standalone="no"?>
<!DOCTYPE svg PUBLIC "-//W3C//DTD SVG 20010904//EN"
 "http://www.w3.org/TR/2001/REC-SVG-20010904/DTD/svg10.dtd">
<svg version="1.0" xmlns="http://www.w3.org/2000/svg"
 width="768.000000pt" height="768.000000pt" viewBox="0 0 768.000000 768.000000"
 preserveAspectRatio="xMidYMid meet">

<g transform="translate(0.000000,768.000000) scale(0.100000,-0.100000)"
fill="#000000" stroke="none">
<path d="M3612 6099 c-13 -5 -26 -18 -29 -29 -3 -12 -38 -35 -98 -64 -162 -79
-264 -202 -280 -338 -6 -54 -8 -58 -51 -83 l-44 -26 0 -78 c0 -70 3 -82 34
-134 49 -81 60 -145 47 -269 -6 -56 -12 -102 -14 -103 -32 -17 -60 -41 -69
-61 -8 -17 -38 -39 -88 -64 l-76 -38 -46 76 c-48 80 -60 114 -77 220 -9 57
-16 71 -66 128 -31 35 -61 64 -67 64 -5 0 -22 -9 -38 -20 l-27 -19 -44 42
c-59 56 -125 109 -176 140 l-42 27 -55 -48 c-63 -53 -192 -199 -276 -313 -73
-98 -268 -409 -280 -446 -5 -15 -12 -108 -15 -205 l-7 -177 -77 -104 c-42 -58
-118 -160 -168 -226 -51 -67 -93 -127 -93 -134 0 -7 63 -79 140 -159 77 -81
140 -152 140 -160 0 -24 67 -288 99 -386 24 -79 38 -104 91 -168 l63 -76 -7
-251 c-3 -139 -9 -296 -13 -350 l-6 -98 272 1 271 2 32 39 c17 21 37 39 43 39
7 0 41 -19 77 -42 167 -111 271 -170 563 -315 238 -119 593 -286 654 -308 42
-14 34 -16 181 52 47 22 155 73 240 113 291 135 605 299 758 395 84 52 157 95
162 95 5 0 21 -16 36 -35 l27 -35 323 0 c178 1 324 4 324 8 0 4 -25 52 -56
107 -31 55 -83 151 -116 213 -54 104 -58 115 -44 131 26 28 54 103 62 161 6
51 12 61 84 136 66 71 81 93 107 165 34 91 73 230 98 348 l15 73 140 148 c77
81 140 150 140 154 0 4 -58 84 -128 179 -238 320 -209 267 -222 408 -6 68 -15
149 -21 179 -15 79 -123 292 -230 455 -76 115 -117 165 -233 281 -78 77 -154
150 -171 161 l-30 21 -97 -137 c-78 -108 -239 -312 -288 -365 -5 -5 -33 3 -67
19 -32 16 -82 34 -111 40 l-54 11 -25 64 c-28 71 -44 86 -86 81 -28 -3 -28 -2
-21 36 3 21 19 58 35 83 39 64 48 91 50 160 2 54 -1 64 -26 90 -15 15 -38 31
-50 34 -21 5 -24 14 -30 72 -14 131 -145 275 -296 326 -49 17 -62 26 -73 52
l-14 33 -92 6 c-133 10 -371 7 -398 -4z m430 -129 c14 -64 21 -293 13 -442 -6
-122 -10 -148 -24 -153 -55 -22 -352 -16 -385 8 -14 10 -16 47 -18 262 -2 176
1 267 10 308 l14 57 191 -2 191 -3 8 -35z m-492 -50 c0 -13 -39 -48 -71 -65
-30 -16 -114 -107 -134 -144 -7 -14 -18 -52 -25 -83 -14 -72 -28 -75 -23 -5
11 145 41 198 150 262 77 45 103 54 103 35z m660 -25 c130 -66 173 -124 185
-252 8 -83 -10 -104 -20 -25 -4 26 -11 59 -16 73 -14 36 -114 136 -176 176
-29 18 -53 40 -53 48 0 20 1 20 80 -20z m-665 -157 c2 -29 6 -115 10 -191 l6
-138 -24 6 c-40 11 -91 30 -112 43 -20 12 -20 12 -1 27 20 15 20 15 0 16 -16
1 -17 2 -1 6 21 5 24 71 5 92 -10 11 -10 12 -1 7 9 -5 11 -2 7 8 -3 9 -10 13
-15 10 -16 -10 -9 13 14 44 42 58 102 129 106 126 2 -2 5 -27 6 -56z m710 -79
c20 -28 27 -53 32 -117 l6 -81 -29 -11 c-20 -8 -30 -8 -32 -1 -2 6 -11 3 -20
-8 -16 -18 -81 -45 -89 -37 -2 2 1 70 7 152 5 82 10 169 10 194 l1 45 45 -50
c24 -27 56 -66 69 -86z m-838 -131 c-3 -7 -5 -2 -5 12 0 14 2 19 5 13 2 -7 2
-19 0 -25z m1083 -39 c0 -34 -15 -69 -30 -69 -6 0 -10 10 -10 21 0 19 -4 21
-35 16 -19 -3 -35 -4 -35 -2 0 8 85 64 98 65 7 0 12 -13 12 -31z m-1233 -4
c23 -14 43 -28 43 -31 0 -3 -16 -2 -36 2 -30 6 -36 4 -41 -15 -7 -27 -19 -27
-27 2 -9 36 -7 67 6 67 6 0 31 -11 55 -25z m296 -143 c186 -50 373 -53 547 -7
52 13 106 27 120 31 l25 6 -25 -21 c-14 -12 -46 -29 -72 -38 l-47 -17 31 -13
c17 -7 47 -13 68 -13 42 0 137 30 187 60 30 17 32 18 24 2 -37 -68 -177 -144
-331 -179 -103 -24 -347 -28 -460 -9 -188 32 -317 90 -358 160 -12 20 -17 36
-13 36 5 0 39 -14 75 -31 70 -33 128 -40 201 -25 l40 8 -73 33 c-113 53 -94
58 61 17z m-1152 -47 c46 -35 97 -100 86 -112 -3 -3 -33 14 -66 37 -54 38 -81
45 -81 19 0 -21 -74 -198 -108 -259 l-37 -65 -3 68 c-3 62 -4 66 -22 57 -10
-5 -39 -40 -63 -77 -47 -71 -147 -267 -147 -289 0 -6 -7 -14 -15 -18 -8 -3
-15 -12 -15 -21 0 -8 -6 -15 -14 -15 -18 0 -20 -8 -42 -140 -25 -160 -33 -159
-29 3 l3 148 43 67 c23 37 78 126 122 197 43 72 107 166 140 210 62 81 187
225 195 225 2 0 26 -16 53 -35z m2975 -72 c138 -136 240 -289 354 -527 l52
-109 -16 -51 -16 -51 5 43 c4 32 2 42 -6 36 -9 -5 -10 -1 -6 15 3 12 -1 27 -8
34 -7 7 -31 51 -54 98 -85 175 -212 358 -326 469 l-67 65 6 -95 c10 -141 12
-154 24 -158 7 -2 12 -12 12 -22 0 -10 6 -31 14 -47 16 -31 51 -114 52 -123 0
-3 21 -50 47 -104 53 -112 51 -143 -5 -89 -39 37 -83 42 -86 9 -1 -16 1 -17 8
-6 5 8 12 11 16 7 9 -9 -16 -38 -27 -31 -13 7 -11 -18 2 -36 9 -13 10 -13 6 2
-3 9 3 24 14 34 11 10 17 24 14 33 -4 10 -3 12 3 6 14 -15 24 -133 12 -140 -6
-3 -10 -1 -10 6 0 7 -6 5 -13 -5 -13 -17 -15 -16 -35 15 -12 19 -17 38 -13 44
5 5 5 19 0 30 -11 29 -11 37 2 29 8 -5 9 -2 1 11 -5 10 -17 20 -26 21 -13 2
-14 -1 -4 -19 11 -22 20 -67 12 -67 -7 0 -44 80 -37 80 5 0 2 4 -6 9 -8 5 -14
24 -13 42 1 24 -2 29 -8 19 -6 -9 -10 -10 -10 -3 0 12 -19 155 -25 188 -2 11
-4 31 -4 45 -1 24 -1 24 -20 5 -11 -11 -34 -47 -51 -80 -17 -33 -29 -49 -26
-35 5 24 4 24 -9 6 -11 -15 -12 -23 -3 -33 6 -7 8 -16 6 -19 -8 -8 -62 61 -88
112 -28 58 -26 62 84 183 62 67 97 115 124 172 20 43 40 78 43 78 3 1 51 -43
105 -96z m-2696 -96 c0 -39 33 -264 40 -272 5 -7 6 -15 2 -19 -4 -4 2 -14 12
-22 11 -8 16 -14 12 -14 -5 0 -3 -7 4 -15 7 -8 9 -22 6 -31 -9 -22 3 -37 19
-24 9 8 14 6 19 -6 3 -9 3 -21 -1 -26 -3 -7 -1 -8 5 -4 7 4 12 2 12 -3 0 -15
40 -13 70 4 30 17 66 19 76 4 4 -7 7 -25 6 -42 0 -17 6 -40 14 -51 8 -11 14
-25 14 -31 -1 -5 -8 3 -16 18 -9 16 -20 25 -26 21 -8 -5 -9 -2 -5 9 8 20 3 21
-26 5 -21 -11 -21 -11 -2 -18 18 -6 18 -7 -3 -12 -18 -5 -22 -2 -22 17 0 19
-6 24 -34 27 -19 2 -34 1 -34 -2 3 -13 -15 -39 -23 -34 -5 3 -9 -2 -9 -10 0
-29 -20 -27 -26 3 -5 26 -8 28 -20 16 -16 -16 -19 -29 -4 -20 15 9 12 -9 -5
-31 -15 -18 -16 -16 -13 28 2 25 0 44 -4 41 -8 -4 -12 18 -9 53 1 13 -6 25
-16 28 -14 6 -16 5 -5 -5 6 -7 12 -17 12 -23 0 -6 -4 -6 -11 1 -8 8 -19 2 -40
-20 l-28 -32 -1 30 c-1 26 -3 27 -10 10 -8 -18 -9 -18 -9 -2 -1 10 -5 16 -10
13 -11 -7 -22 62 -14 93 4 16 3 22 -5 17 -7 -4 -12 9 -14 40 -2 27 -9 49 -15
52 -7 2 -27 -19 -44 -47 -18 -28 -36 -48 -42 -44 -6 3 -7 1 -3 -5 4 -6 -3 -34
-15 -62 -16 -38 -25 -48 -31 -38 -7 9 -8 8 -4 -5 8 -25 -20 -87 -39 -87 -13 0
-14 -4 -4 -21 9 -18 7 -25 -11 -43 -13 -11 -19 -15 -15 -7 4 7 8 30 9 51 l2
39 -30 -17 c-17 -9 -34 -15 -38 -14 -5 1 -8 -3 -8 -10 0 -6 -3 -8 -7 -5 -3 4
0 15 8 24 8 10 43 66 78 124 83 140 139 213 202 265 29 23 65 65 81 93 16 28
34 51 39 51 5 0 9 -1 9 -3z m1627 -104 c-14 -43 -35 -126 -47 -183 -11 -58
-25 -113 -31 -123 -5 -10 -7 -22 -4 -27 3 -6 -1 -7 -9 -4 -8 3 -22 22 -32 42
-30 66 -50 80 -183 131 l-55 21 -46 -30 c-55 -35 -75 -37 -115 -9 -60 41 -69
41 -156 4 -103 -43 -122 -61 -144 -136 -11 -35 -22 -56 -27 -51 -5 5 -20 68
-33 139 -13 71 -38 165 -55 208 -16 44 -30 84 -30 90 0 5 31 -23 69 -63 89
-93 129 -111 247 -112 49 -1 136 -2 194 -2 278 -3 307 6 412 122 34 38 64 67
66 65 2 -2 -7 -39 -21 -82z m204 36 c19 -48 14 -126 -15 -204 -15 -38 -23 -54
-19 -35 5 19 8 88 8 153 0 64 3 117 6 117 4 0 12 -14 20 -31z m325 -168 c73
-35 83 -43 103 -85 32 -66 26 -80 -24 -56 -22 10 -35 19 -30 19 6 1 -5 9 -23
18 -18 8 -30 18 -27 21 3 3 -14 14 -37 24 -50 23 -63 17 -13 -6 19 -10 33 -21
30 -26 -3 -4 1 -11 7 -14 7 -4 3 -4 -9 -2 -28 5 -29 -6 -8 -69 9 -25 13 -51 9
-57 -4 -6 -3 -8 3 -5 11 7 29 -80 19 -91 -3 -3 -6 6 -7 19 0 23 -1 23 -10 4
-7 -15 -8 -11 -5 18 3 20 1 35 -4 32 -5 -3 -13 3 -19 12 -5 10 -13 15 -17 10
-4 -4 1 -16 11 -27 11 -12 15 -26 10 -37 -6 -15 -10 -13 -21 15 -8 17 -19 32
-25 32 -5 0 -7 -4 -4 -10 3 -5 2 -10 -4 -10 -5 0 -12 4 -15 9 -3 5 -14 11 -25
14 -14 3 -18 1 -14 -9 3 -8 9 -11 14 -8 5 3 9 0 9 -5 0 -6 -9 -16 -20 -23 -11
-7 -20 -19 -20 -26 0 -9 -6 -12 -16 -8 -13 5 -14 3 -7 -6 13 -17 24 -60 13
-53 -5 3 -11 -1 -14 -7 -3 -7 -3 -2 0 10 4 16 0 30 -13 41 -18 17 -20 17 -53
-11 -19 -16 -27 -26 -17 -22 10 3 17 1 17 -5 0 -8 8 -7 22 3 25 18 38 20 38 8
0 -5 -10 -14 -22 -21 -19 -9 -19 -11 -3 -6 19 5 19 4 2 -9 -18 -14 -18 -14 0
-19 11 -4 8 -5 -7 -4 -14 2 -24 8 -23 14 1 6 -7 13 -18 16 -16 4 -18 3 -8 -9
9 -11 7 -14 -9 -14 -16 0 -20 4 -15 18 5 14 3 15 -7 5 -11 -10 -11 -15 1 -29
13 -16 12 -17 -9 -12 -12 4 -20 2 -16 -3 3 -5 24 -10 47 -10 36 -2 34 -3 -18
-9 -33 -3 -61 -5 -63 -4 -9 6 21 44 78 99 34 33 79 81 100 107 21 26 40 44 43
41 3 -3 6 3 6 13 -1 26 6 52 14 60 14 14 7 24 -15 23 -18 -1 -19 -2 -5 -6 9
-2 15 -9 11 -14 -3 -5 -10 -7 -15 -3 -5 3 -17 0 -25 -7 -8 -6 -17 -9 -21 -5
-3 3 -15 -2 -26 -11 -19 -17 -20 -17 -14 0 6 15 4 16 -13 7 -35 -19 -21 -2 23
29 31 21 50 28 70 24 28 -5 33 2 18 26 -6 9 -11 10 -15 2 -4 -6 -2 -11 5 -11
7 0 10 -3 6 -6 -16 -17 -23 9 -11 43 7 21 13 53 14 72 0 31 2 33 28 27 15 -4
63 -24 108 -45z m-1614 -130 c-3 -9 -1 -12 6 -7 7 4 12 3 12 -3 0 -5 -5 -13
-10 -16 -15 -10 -28 35 -22 80 l6 40 7 -40 c3 -22 4 -46 1 -54z m-25 47 c-3
-8 -6 -5 -6 6 -1 11 2 17 5 13 3 -3 4 -12 1 -19z m552 -49 l90 -31 53 17 c29
10 57 21 63 26 22 21 95 -1 127 -38 8 -10 31 -48 50 -85 l36 -68 -35 -31 c-20
-17 -39 -27 -43 -22 -4 4 -15 39 -25 77 -25 92 -30 94 -260 92 l-179 -1 -28
-70 c-15 -38 -29 -74 -31 -79 -1 -5 -16 2 -31 16 l-28 24 35 71 c21 42 51 83
74 101 21 17 39 31 40 32 2 0 43 -14 92 -31z m-976 -14 c-3 -9 -8 -14 -10 -11
-3 3 -2 9 2 15 9 16 15 13 8 -4z m479 -49 c2 -19 0 -32 -4 -30 -8 5 -12 64 -4
64 2 0 6 -15 8 -34z m-149 -28 c9 -13 39 -45 65 -72 26 -27 40 -45 32 -41 -8
5 -3 -5 11 -21 24 -28 29 -64 8 -64 -6 0 -7 5 -4 11 8 12 -34 61 -45 54 -5 -3
-10 2 -14 10 -3 8 -1 17 4 20 11 7 2 35 -12 35 -6 0 -5 -6 2 -15 7 -8 8 -15 2
-15 -5 0 -15 7 -22 15 -7 8 -18 15 -24 15 -6 0 -4 -4 4 -10 8 -5 11 -12 7 -16
-13 -14 -29 13 -22 36 6 18 9 20 17 9 8 -12 9 -12 6 0 -2 8 -12 15 -21 17 -10
1 -14 -2 -11 -8 4 -7 2 -8 -4 -4 -7 4 -12 12 -12 18 0 7 -9 22 -21 34 l-20 21
28 -3 c15 -1 36 -13 46 -26z m227 -64 c0 -8 5 -13 12 -11 7 1 13 -8 14 -20 2
-29 -9 -29 -46 -1 -22 16 -27 24 -18 30 10 6 9 8 -2 9 -10 0 -8 3 5 8 24 10
35 5 35 -15z m-178 -73 c10 -26 12 -38 4 -35 -15 6 -46 61 -38 68 12 12 19 5
34 -33z m241 21 c10 -10 14 -22 10 -27 -5 -4 0 -5 10 -2 12 5 16 3 11 -5 -5
-8 -2 -9 9 -5 10 3 17 2 17 -3 0 -14 -7 -13 -57 6 -32 12 -40 20 -33 29 5 6 7
15 3 18 -3 4 -2 7 4 7 5 0 17 -8 26 -18z m1404 -14 c-3 -8 -6 -5 -6 6 -1 11 2
17 5 13 3 -3 4 -12 1 -19z m-177 3 c0 -5 -7 -12 -16 -15 -24 -9 -28 -7 -14 9
14 17 30 20 30 6z m64 -7 c3 -8 2 -12 -4 -9 -6 3 -10 10 -10 16 0 14 7 11 14
-7z m723 -94 c0 -16 -4 -27 -9 -24 -10 6 -11 38 -1 47 9 10 10 10 10 -23z
m-2616 -182 c97 -48 120 -72 113 -119 -6 -34 -8 -36 -46 -37 -22 -1 -55 -11
-73 -22 -38 -23 -61 -25 -72 -6 -16 28 -77 49 -143 50 -59 1 -116 -7 -127 -17
-12 -13 -18 -73 -20 -249 -4 -225 -8 -216 90 -238 114 -25 207 19 207 98 0 36
-3 40 -31 46 -17 3 -51 6 -74 6 -24 0 -45 4 -47 10 -1 5 -1 39 0 75 l4 65 174
0 174 0 -2 -232 -3 -233 -69 -3 c-55 -2 -71 0 -80 14 -12 15 -13 16 -19 0 -4
-10 -18 -16 -37 -16 -17 0 -29 -3 -27 -7 3 -5 -61 -5 -142 -2 -141 6 -150 7
-207 38 -33 17 -81 52 -106 76 -43 41 -47 49 -53 108 -4 35 -5 142 -3 238 4
200 6 205 92 289 99 96 140 110 322 107 128 -2 131 -3 205 -39z m861 8 c77
-39 161 -123 178 -178 15 -50 15 -299 1 -402 -13 -91 -37 -124 -125 -168 -132
-67 -137 -68 -275 -68 -167 0 -211 15 -312 109 l-72 67 1 232 c2 252 6 273 58
326 42 42 127 95 171 106 21 5 101 8 178 7 133 -2 143 -3 197 -31z m566 -308
l2 -338 48 -2 c26 0 63 -2 82 -3 19 0 86 -2 149 -3 112 -2 113 -2 108 -24 -3
-13 -11 -45 -18 -73 -6 -27 -15 -55 -21 -62 -6 -8 -94 -11 -303 -12 l-295 0 0
430 0 430 123 -3 122 -3 3 -337z m892 333 c87 -6 125 -13 157 -30 57 -29 171
-147 184 -191 6 -21 9 -119 7 -247 l-3 -212 -38 -39 c-20 -21 -34 -42 -30 -47
5 -4 3 -5 -4 -2 -6 4 -38 -8 -70 -27 -78 -47 -143 -56 -403 -56 l-215 0 3 417
c1 230 4 424 7 431 5 14 215 16 405 3z m-3296 -158 c-51 -78 -264 -310 -264
-288 0 9 161 213 217 275 46 51 78 59 47 13z m4035 24 c6 -8 7 -18 3 -22 -4
-5 -2 -5 4 -2 6 3 24 -8 41 -26 51 -55 182 -234 176 -241 -4 -3 0 -6 7 -6 7 0
11 -3 8 -6 -8 -7 -78 38 -78 50 0 11 -65 88 -139 163 -34 35 -61 65 -61 67 0
12 13 36 20 36 4 0 13 -6 19 -13z m-4067 -354 c87 -64 118 -94 111 -106 -3 -6
-1 -7 4 -4 6 4 15 1 21 -6 15 -19 24 -85 12 -92 -5 -3 -10 -16 -10 -28 0 -33
-18 -7 -23 33 l-4 35 -1 -37 c-1 -21 -6 -38 -11 -38 -5 0 -12 -10 -14 -22 -4
-20 -4 -20 -6 4 0 15 -5 30 -11 33 -5 3 -10 19 -10 34 0 22 -12 38 -53 72 -62
52 -137 132 -137 147 0 6 -6 13 -12 15 -7 3 8 6 34 6 42 1 56 -5 110 -46z
m4189 20 c-29 -41 -122 -137 -149 -155 -15 -11 -29 -35 -38 -70 -8 -31 -12
-40 -10 -21 1 18 -1 30 -6 27 -4 -3 -8 -14 -8 -25 0 -10 -4 -19 -9 -19 -5 0
-12 -8 -14 -17 -2 -10 -3 -2 -1 17 2 19 -1 42 -7 50 -9 12 -10 12 -5 -3 3 -11
-1 -26 -11 -35 -15 -16 -16 -15 -10 8 3 14 9 43 13 65 8 48 30 74 109 129 82
57 116 75 143 76 l23 0 -20 -27z m-4067 -298 c5 -22 4 -26 -4 -15 -8 13 -10
12 -10 -4 0 -11 -2 -17 -5 -14 -3 3 -2 19 1 37 8 37 9 36 18 -4z m3866 -20 c0
-5 -5 -3 -10 5 -5 8 -10 20 -10 25 0 6 5 3 10 -5 5 -8 10 -19 10 -25z m-33
-27 c-3 -7 -5 -2 -5 12 0 14 2 19 5 13 2 -7 2 -19 0 -25z m-3840 -30 c-3 -8
-6 -5 -6 6 -1 11 2 17 5 13 3 -3 4 -12 1 -19z m367 -237 c24 -10 99 -115 166
-233 17 -32 35 -58 38 -58 8 0 163 243 174 271 10 25 38 30 153 27 l100 -3 -4
-370 c-2 -203 -5 -371 -6 -373 -2 -2 -45 -7 -96 -12 -52 -5 -95 -14 -97 -19
-2 -6 -8 -11 -13 -11 -5 0 -9 90 -9 211 0 187 -2 210 -15 199 -8 -7 -15 -19
-15 -26 0 -8 -6 -14 -14 -14 -8 0 -19 -12 -25 -27 -16 -38 -36 -72 -51 -86
-10 -9 -11 -9 -5 3 8 13 7 13 -8 1 -18 -15 -23 -26 -7 -16 20 12 9 -11 -23
-52 l-33 -41 -20 25 c-10 14 -22 30 -25 36 -4 5 -12 7 -17 3 -6 -4 -16 4 -23
16 -11 21 -11 22 4 9 31 -25 18 -1 -58 106 -66 93 -75 102 -76 77 0 -16 -2
-40 -3 -54 -1 -14 -3 -105 -4 -203 -1 -98 -6 -176 -10 -173 -12 7 -165 -24
-189 -40 -12 -7 -24 -10 -26 -6 -2 4 -1 102 4 217 4 116 8 301 8 412 l1 202
58 4 c118 7 141 7 166 -2z m986 -363 l0 -373 -110 0 -110 0 0 357 c0 196 3
363 6 372 5 13 25 16 110 16 l104 0 0 -372z m387 337 c13 -17 70 -97 126 -178
l102 -148 3 181 2 180 109 0 108 0 6 -212 c4 -116 7 -282 7 -370 l0 -158 -82
0 c-92 0 -128 7 -129 24 -2 26 -189 297 -201 290 -4 -3 -8 -2 -7 3 3 19 -3 31
-31 63 l-31 35 3 -205 3 -205 -113 -5 -112 -5 0 374 0 373 106 -4 c104 -3 107
-4 131 -33z m1056 28 l97 -6 0 -68 0 -69 -172 -2 -173 -3 -3 -66 -3 -67 118
-6 c65 -4 133 -9 151 -12 l32 -5 0 -69 0 -70 -149 3 -149 4 -7 -68 c-4 -37 -4
-72 -1 -77 3 -6 59 -13 123 -16 65 -4 144 -9 176 -12 l57 -6 0 -63 0 -63 -285
2 -285 1 0 373 0 372 188 0 c103 0 231 -3 285 -7z m558 -2 c133 -7 151 -11
198 -36 94 -52 128 -128 117 -267 -3 -40 -5 -81 -6 -91 -1 -9 -5 -15 -11 -12
-5 4 -32 -16 -59 -43 l-51 -50 89 -164 c48 -90 91 -172 95 -182 7 -17 6 -17
-10 -5 -10 8 -20 17 -23 21 -3 4 -52 15 -109 24 -75 13 -104 22 -108 33 -12
39 -126 257 -141 269 -9 6 -31 12 -49 12 -38 0 -37 6 -34 -165 l2 -110 -114 3
-114 3 -6 247 c-4 136 -7 309 -7 385 l0 137 98 -1 c53 0 163 -4 243 -8z m-786
-1040 c-10 -9 -176 -97 -315 -167 -36 -18 -101 -47 -145 -64 -44 -17 -101 -42
-126 -55 l-47 -25 -48 24 c-27 14 -103 48 -169 76 -116 50 -315 149 -325 161
-3 4 -23 16 -45 28 -54 29 -41 27 94 -15 165 -52 280 -97 274 -108 -4 -5 -1
-6 6 -2 6 4 35 -4 65 -17 30 -14 68 -28 85 -32 17 -3 33 -11 36 -16 11 -16 40
-10 141 31 80 33 312 118 489 178 39 14 41 14 30 3z"/>
<path d="M3461 5604 c0 -11 3 -14 6 -6 3 7 2 16 -1 19 -3 4 -6 -2 -5 -13z"/>
<path d="M3462 5550 c0 -19 2 -27 5 -17 2 9 2 25 0 35 -3 9 -5 1 -5 -18z"/>
<path d="M3425 5470 c3 -5 8 -10 11 -10 2 0 4 5 4 10 0 6 -5 10 -11 10 -5 0
-7 -4 -4 -10z"/>
<path d="M4214 5596 c-3 -15 -4 -30 0 -33 3 -4 6 3 6 15 0 16 5 20 18 16 10
-4 13 -2 7 3 -5 4 -13 12 -17 17 -4 5 -10 -4 -14 -18z"/>
<path d="M5381 4757 c-13 -21 -12 -21 5 -5 10 10 16 20 13 22 -3 3 -11 -5 -18
-17z"/>
<path d="M5446 4642 c-2 -4 -1 -14 5 -22 5 -8 9 -10 9 -5 0 6 7 1 15 -9 8 -11
15 -15 15 -8 0 6 -9 17 -20 25 -11 8 -17 17 -13 20 3 4 4 7 0 7 -3 0 -8 -4
-11 -8z"/>
<path d="M5387 4563 c-4 -3 -7 -11 -7 -17 0 -6 5 -5 12 2 6 6 9 14 7 17 -3 3
-9 2 -12 -2z"/>
<path d="M2611 4814 c0 -11 3 -14 6 -6 3 7 2 16 -1 19 -3 4 -6 -2 -5 -13z"/>
<path d="M2643 4695 c0 -7 6 -11 14 -8 7 3 13 6 13 8 0 2 -6 5 -13 8 -8 3 -14
-1 -14 -8z"/>
<path d="M2376 4673 c-6 -14 -5 -15 5 -6 7 7 10 15 7 18 -3 3 -9 -2 -12 -12z"/>
<path d="M2888 4653 c7 -3 16 -2 19 1 4 3 -2 6 -13 5 -11 0 -14 -3 -6 -6z"/>
<path d="M4210 4720 c0 -5 5 -10 11 -10 5 0 7 5 4 10 -3 6 -8 10 -11 10 -2 0
-4 -4 -4 -10z"/>
<path d="M4656 4764 c-11 -8 -16 -14 -10 -14 13 0 39 18 34 24 -3 2 -14 -2
-24 -10z"/>
<path d="M4662 4605 c-7 -8 -9 -15 -4 -15 5 0 15 7 22 15 16 19 -1 19 -18 0z"/>
<path d="M3210 4526 c0 -2 8 -10 18 -17 15 -13 16 -12 3 4 -13 16 -21 21 -21
13z"/>
<path d="M3425 4133 c-71 -16 -87 -26 -106 -67 -16 -35 -19 -67 -19 -222 0
-160 2 -183 18 -197 53 -48 214 -43 265 8 15 14 17 44 17 225 l0 209 -31 22
c-30 21 -99 32 -144 22z"/>
<path d="M4950 3877 l0 -254 77 -7 c91 -7 142 3 175 33 23 22 23 26 23 204 0
203 -5 233 -38 243 -12 4 -25 12 -29 18 -4 6 -48 12 -107 14 l-100 4 -1 -255z"/>
<path d="M1931 3614 c0 -11 3 -14 6 -6 3 7 2 16 -1 19 -3 4 -6 -2 -5 -13z"/>
<path d="M1871 3594 c0 -11 3 -14 6 -6 3 7 2 16 -1 19 -3 4 -6 -2 -5 -13z"/>
<path d="M5150 2965 l0 -95 86 0 c47 0 93 4 103 10 23 12 34 64 25 118 -8 51
-31 62 -134 62 l-80 0 0 -95z"/>
</g>
</svg>
